#!OML:ASF G:\JayActor3\Patient Classification 1\Patient 1\Session 5\male.ASF
:FULLY-SPECIFIED
:DEGREES
339
root 21.4425 16.657 -4.48142 935.111 84.6159 938.662
lowerback 0.801142 -1.97886 2.9995
upperback 2.01305 -2.63028 1.16534
thorax 1.53549 -1.26615 -0.495881
lowerneck -9.12689 1.18502 4.29235
upperneck 13.3661 1.33762 -1.98644
head 5.57633 0.759781 -1.22368
rclavicle 5.61101e-015 -9.0447e-015
rhumerus -36.8503 -12.0568 -81.4952
rradius 18.1764
rwrist 15.0071
rhand -17.7989 -5.1485
rfingers 7.12502
rthumb 8.46445 -34.9589
lclavicle 5.61101e-015 -9.0447e-015
lhumerus -30.7832 15.6935 83.1358
lradius 18.2937
lwrist 3.4213
lhand -16.6476 13.722
lfingers 7.12502
lthumb 9.5754 43.4844
rfemur -17.0045 2.53767 26.5231
rtibia 33.7923
rfoot -15.623 -16.117
rtoes 10.6907
lfemur 4.16161 6.03247 -10.909
ltibia 56.9317
lfoot 12.5041 7.08996
ltoes -5.94517
340
root 21.5957 16.6689 -4.46413 934.505 84.4472 938.048
lowerback 0.787108 -1.9239 3.06271
upperback 2.05553 -2.55807 1.15231
thorax 1.58594 -1.22767 -0.545649
lowerneck -9.1286 1.13149 4.26175
upperneck 13.2809 1.25276 -1.88535
head 5.54657 0.722871 -1.1932
rclavicle 5.98839e-015 -1.55052e-014
rhumerus -36.1834 -11.7916 -81.7727
rradius 18.2219
rwrist 14.991
rhand -17.8821 -5.19843
rfingers 7.12502
rthumb 8.38416 -35.012
lclavicle 5.98839e-015 -1.55052e-014
lhumerus -31.063 16.3121 82.667
lradius 17.9106
lwrist 3.07847
lhand -16.8126 13.7536
lfingers 7.12502
lthumb 9.41615 43.5233
rfemur -16.3138 2.5336 26.7181
rtibia 33.6281
rfoot -16.1112 -16.175
rtoes 10.6481
lfemur 2.40095 5.50203 -11.1325
ltibia 58.7056
lfoot 11.2371 7.13871
ltoes -6.59497
341
root 21.7461 16.6786 -4.44647 933.967 84.3258 937.492
lowerback 0.791153 -1.85032 3.09819
upperback 2.08636 -2.46008 1.12386
thorax 1.61575 -1.17714 -0.594754
lowerneck -9.14072 1.07215 4.22881
upperneck 13.2311 1.15812 -1.76453
head 5.52939 0.68295 -1.15685
rclavicle -7.14848e-015 3.08116e-015
rhumerus -35.5279 -11.5354 -82.046
rradius 18.286
rwrist 14.9787
rhand -17.948 -5.22564
rfingers 7.12502
rthumb 8.32056 -35.0418
lclavicle -7.14848e-015 3.08116e-015
lhumerus -31.3578 16.8064 82.222
lradius 17.6143
lwrist 2.72321
lhand -16.9981 13.7863
lfingers 7.12502
lthumb 9.23722 43.564
rfemur -15.6621 2.57772 26.8937
rtibia 33.4991
rfoot -16.6212 -16.2272
rtoes 10.6514
lfemur 0.681479 4.97984 -11.3854
ltibia 60.2339
lfoot 9.9811 7.08971
ltoes -7.20161
342
root 21.8943 16.6865 -4.42863 933.514 84.2514 937.023
lowerback 0.821415 -1.75906 3.11027
upperback 2.10371 -2.33715 1.08299
thorax 1.61841 -1.11503 -0.642294
lowerneck -9.15052 1.00687 4.18652
upperneck 13.2142 1.0549 -1.62199
head 5.52183 0.640525 -1.11282
rclavicle 1.17306e-014 -1.33683e-014
rhumerus -34.8947 -11.289 -82.3034
rradius 18.3547
rwrist 14.9765
rhand -18.0043 -5.16005
rfingers 7.12502
rthumb 8.26622 -34.9783
lclavicle 1.17306e-014 -1.33683e-014
lhumerus -31.679 17.1662 81.8094
lradius 17.4069
lwrist 2.38444
lhand -17.1761 13.7997
lfingers 7.12502
lthumb 9.06539 43.5849
rfemur -15.0359 2.65505 27.0535
rtibia 33.3936
rfoot -17.1267 -16.2785
rtoes 10.6395
lfemur -0.980818 4.48107 -11.6611
ltibia 61.5228
lfoot 8.70072 6.94959
ltoes -7.94851
343
root 22.0411 16.6926 -4.41115 933.205 84.2213 936.706
lowerback 0.870073 -1.65182 3.10866
upperback 2.11618 -2.19201 1.03514
thorax 1.60693 -1.04229 -0.688703
lowerneck -9.16403 0.93703 4.13251
upperneck 13.225 0.945758 -1.46497
head 5.52349 0.596151 -1.06279
rclavicle 7.66408e-016 -3.75206e-015
rhumerus -34.2725 -10.9871 -82.5813
rradius 18.4625
rwrist 14.8833
rhand -18.0291 -5.14147
rfingers 7.12502
rthumb 8.24221 -34.9607
lclavicle 7.66408e-016 -3.75206e-015
lhumerus -32.0161 17.3861 81.4468
lradius 17.2862
lwrist 2.09647
lhand -17.317 13.7911
lfingers 7.12502
lthumb 8.92941 43.5822
rfemur -14.4198 2.75061 27.2032
rtibia 33.3007
rfoot -17.6093 -16.3246
rtoes 10.5751
lfemur -2.56601 4.02106 -11.9489
ltibia 62.5804
lfoot 7.36488 6.75703
ltoes -8.72751
